<?xml version="1.0" standalone="no"?>
<!DOCTYPE svg PUBLIC "-//W3C//DTD SVG 20010904//EN"
 "http://www.w3.org/TR/2001/REC-SVG-20010904/DTD/svg10.dtd">
<svg version="1.0" xmlns="http://www.w3.org/2000/svg"
 width="200.000000pt" height="200.000000pt" viewBox="0 0 200.000000 200.000000"
 preserveAspectRatio="xMidYMid meet">
<metadata>
Created by potrace 1.14, written by Peter Selinger 2001-2017
</metadata>
<g transform="translate(0.000000,200.000000) scale(0.100000,-0.100000)"
fill="#000000" stroke="none">
<path d="M842 1755 c-180 -39 -341 -140 -454 -285 -197 -254 -210 -627 -32
-897 85 -127 239 -248 380 -297 284 -100 605 -29 809 179 431 438 209 1176
-391 1300 -89 18 -227 18 -312 0z m281 -46 c41 -6 111 -28 164 -51 73 -32 97
-47 118 -78 15 -21 24 -43 21 -49 -3 -5 -1 -11 6 -13 16 -6 15 -192 -1 -212
-7 -8 -10 -19 -7 -25 13 -20 -64 -202 -121 -286 -12 -18 -13 -17 -13 13 0 24
4 31 13 26 6 -4 5 1 -4 12 -9 10 -23 48 -32 84 -8 36 -23 82 -31 102 -9 21
-16 41 -15 44 0 4 -4 10 -9 13 -5 3 -19 25 -31 48 -28 56 -100 146 -169 211
-31 29 -57 61 -57 69 0 9 -7 18 -15 20 -13 4 -13 3 0 -6 8 -5 11 -13 8 -17 -4
-3 -21 5 -38 20 -17 14 -37 26 -43 26 -7 0 -6 5 3 11 12 8 11 9 -6 4 -27 -7
-73 9 -55 19 38 24 204 32 314 15z m-332 -81 c117 -39 281 -199 348 -338 11
-24 21 -45 21 -46 0 -2 -29 10 -64 26 -91 42 -176 53 -340 47 -122 -4 -154 -9
-237 -36 -53 -17 -112 -41 -130 -54 -19 -12 -47 -31 -63 -41 l-29 -18 7 28
c28 115 183 349 218 328 6 -4 8 -3 4 4 -7 11 61 71 109 96 36 19 109 21 156 4z
m844 -279 c50 -95 73 -167 85 -265 13 -106 3 -148 -50 -203 -86 -88 -239 -140
-435 -148 l-130 -5 40 27 c141 97 261 272 322 472 21 71 26 109 27 197 l0 109
52 -57 c29 -31 69 -88 89 -127z m-755 -82 c0 -2 -25 -21 -55 -41 -125 -87
-229 -245 -291 -441 -23 -75 -28 -108 -28 -202 -1 -62 -2 -113 -2 -113 -12 0
-121 153 -148 207 -66 133 -95 301 -65 380 43 113 272 208 512 212 42 0 77 -1
77 -2z m218 -66 c78 -40 124 -114 125 -200 1 -188 -221 -295 -362 -174 -129
110 -107 297 44 376 43 23 146 22 193 -2z m-378 -218 c1 -145 98 -347 239
-497 57 -60 185 -152 228 -162 12 -4 23 -10 23 -14 0 -14 -132 -34 -220 -33
-131 0 -317 56 -379 114 -78 73 -78 261 1 455 34 86 88 184 100 184 4 0 8 -21
8 -47z m970 -214 c-37 -111 -87 -188 -184 -284 -108 -108 -164 -140 -236 -133
-128 13 -297 152 -406 337 -24 41 -42 76 -40 78 1 2 27 -8 57 -21 103 -48 173
-60 324 -59 109 0 158 5 220 22 90 24 205 77 250 114 17 14 31 22 33 17 2 -4
-7 -36 -18 -71z"/>
<path d="M1030 1700 c8 -5 26 -10 39 -10 32 0 24 6 -19 14 -25 4 -31 3 -20 -4z"/>
<path d="M913 1693 c-13 -2 -23 -9 -23 -14 0 -12 10 -11 40 6 25 15 23 16 -17
8z"/>
<path d="M940 1674 c-14 -8 -18 -14 -10 -14 8 1 24 7 34 15 24 19 10 18 -24
-1z"/>
<path d="M1209 1657 c6 -8 7 -18 3 -22 -4 -5 1 -5 11 -2 10 4 21 7 25 7 9 0
-32 29 -42 30 -5 0 -3 -6 3 -13z"/>
<path d="M1233 1614 c3 -4 25 -8 49 -9 30 -2 37 0 23 5 -23 10 -81 13 -72 4z"/>
<path d="M1360 1546 c0 -8 4 -17 9 -20 5 -4 7 3 4 14 -6 23 -13 26 -13 6z"/>
<path d="M1391 1544 c0 -11 3 -14 6 -6 3 7 2 16 -1 19 -3 4 -6 -2 -5 -13z"/>
<path d="M1256 1502 c12 -10 24 -27 27 -38 4 -17 5 -17 6 2 1 14 -9 28 -26 38
-28 17 -28 17 -7 -2z"/>
<path d="M1100 1495 c-7 -9 -8 -15 -2 -15 5 0 12 7 16 15 3 8 4 15 2 15 -2 0
-9 -7 -16 -15z"/>
<path d="M1220 1486 c0 -2 8 -10 18 -17 15 -13 16 -12 3 4 -13 16 -21 21 -21
13z"/>
<path d="M1390 1399 c0 -22 4 -38 9 -35 5 4 11 3 14 -1 2 -5 2 -2 0 5 -1 8 -3
27 -3 43 0 16 -4 29 -10 29 -5 0 -10 -18 -10 -41z"/>
<path d="M1160 1413 c0 -6 8 -17 18 -24 16 -13 16 -13 2 6 -8 11 -16 22 -17
24 -2 2 -3 0 -3 -6z"/>
<path d="M1216 1345 c-9 -26 -7 -32 5 -12 6 10 9 21 6 23 -2 3 -7 -2 -11 -11z"/>
<path d="M1250 1340 c0 -5 7 -10 15 -10 8 0 15 5 15 10 0 6 -7 10 -15 10 -8 0
-15 -4 -15 -10z"/>
<path d="M1322 1300 c0 -19 2 -27 5 -17 2 9 2 25 0 35 -3 9 -5 1 -5 -18z"/>
<path d="M1240 1299 c0 -5 5 -7 10 -4 6 3 10 8 10 11 0 2 -4 4 -10 4 -5 0 -10
-5 -10 -11z"/>
<path d="M1241 1264 c0 -11 3 -14 6 -6 3 7 2 16 -1 19 -3 4 -6 -2 -5 -13z"/>
<path d="M1266 1255 c8 -37 14 -45 14 -19 0 10 -5 26 -10 34 -8 11 -9 7 -4
-15z"/>
<path d="M1390 1275 c0 -5 5 -17 10 -25 5 -8 10 -10 10 -5 0 6 -5 17 -10 25
-5 8 -10 11 -10 5z"/>
<path d="M1371 1244 c0 -11 3 -14 6 -6 3 7 2 16 -1 19 -3 4 -6 -2 -5 -13z"/>
<path d="M1365 1169 c-4 -6 -5 -12 -2 -15 2 -3 7 2 10 11 7 17 1 20 -8 4z"/>
<path d="M1330 1100 c0 -5 5 -10 11 -10 5 0 7 5 4 10 -3 6 -8 10 -11 10 -2 0
-4 -4 -4 -10z"/>
</g>
</svg>
