<?xml version="1.0" standalone="no"?>
<!DOCTYPE svg PUBLIC "-//W3C//DTD SVG 20010904//EN"
 "http://www.w3.org/TR/2001/REC-SVG-20010904/DTD/svg10.dtd">
<svg version="1.0" xmlns="http://www.w3.org/2000/svg"
 width="225.000000pt" height="225.000000pt" viewBox="0 0 225.000000 225.000000"
 preserveAspectRatio="xMidYMid meet">
<metadata>
Created by potrace 1.14, written by Peter Selinger 2001-2017
</metadata>
<g transform="translate(0.000000,225.000000) scale(0.100000,-0.100000)"
fill="#000000" stroke="none">
<path d="M975 2239 c-591 -74 -1031 -633 -966 -1228 67 -620 618 -1069 1230
-1002 459 49 838 366 965 805 95 328 29 702 -172 972 -251 337 -642 505 -1057
453z m473 -932 l-3 -682 -33 -67 c-39 -79 -92 -128 -171 -160 -53 -21 -72 -23
-368 -26 l-313 -3 0 144 0 144 251 7 c263 7 283 11 324 56 19 22 20 38 23 646
l3 624 145 0 145 0 -3 -683z"/>
</g>
</svg>
