<?xml version="1.0" standalone="no"?>
<!DOCTYPE svg PUBLIC "-//W3C//DTD SVG 20010904//EN"
 "http://www.w3.org/TR/2001/REC-SVG-20010904/DTD/svg10.dtd">
<svg version="1.0" xmlns="http://www.w3.org/2000/svg"
 width="1123.000000pt" height="1123.000000pt" viewBox="0 0 1123.000000 1123.000000"
 preserveAspectRatio="xMidYMid meet">
<metadata>
Created by potrace 1.14, written by Peter Selinger 2001-2017
</metadata>
<g transform="translate(0.000000,1123.000000) scale(0.100000,-0.100000)"
fill="#000000" stroke="none">
<path d="M9392 8573 c-7 -3 -40 -42 -74 -86 -34 -45 -64 -84 -68 -87 -3 -3
-16 -22 -30 -42 -14 -21 -28 -38 -32 -38 -5 0 -8 -7 -8 -15 0 -8 -4 -15 -10
-15 -5 0 -20 -15 -32 -33 -49 -72 -99 -135 -111 -139 -6 -3 -46 1 -87 8 -41 8
-92 14 -112 15 -21 1 -38 5 -38 8 0 3 -17 6 -38 5 -20 0 -50 3 -67 7 -16 4
-52 10 -80 14 -47 6 -163 22 -212 30 -13 2 -25 0 -28 -5 -3 -4 -29 -6 -58 -4
-116 9 -191 5 -216 -10 -10 -7 -12 -6 -6 4 6 9 4 11 -5 5 -7 -4 -24 -9 -39
-10 -78 -7 -183 -23 -268 -39 -13 -3 -57 -16 -98 -30 -84 -28 -158 -49 -164
-46 -2 1 -7 -2 -10 -7 -3 -4 -24 -14 -46 -22 -130 -44 -295 -147 -444 -277
-32 -28 -57 -33 -71 -14 -15 20 -236 109 -315 127 -11 2 -24 5 -30 6 -5 2 -14
5 -20 9 -5 3 -64 20 -130 37 -66 18 -147 40 -180 51 -33 10 -73 21 -90 24 -16
2 -43 7 -60 10 -16 3 -43 8 -60 10 -16 3 -41 7 -55 10 -44 8 -136 20 -250 31
-25 2 -45 5 -45 5 0 3 -63 8 -140 14 -38 2 -74 5 -80 6 -5 1 -12 2 -15 1 -22
-7 -277 -4 -273 3 4 5 0 5 -8 0 -8 -4 -81 -9 -164 -11 -82 -1 -168 -4 -190 -7
-22 -3 -61 -8 -88 -10 -26 -3 -56 -10 -67 -16 -11 -6 -20 -9 -20 -6 0 2 -17 0
-37 -5 -21 -5 -54 -12 -73 -15 -68 -11 -237 -57 -300 -81 -8 -4 -17 -7 -20 -7
-35 -8 -107 -31 -115 -36 -5 -4 -26 -11 -45 -15 -19 -4 -41 -12 -47 -17 -7 -6
-13 -7 -13 -4 0 4 -9 2 -21 -4 -11 -6 -30 -13 -42 -15 -23 -5 -26 -6 -127 -53
-36 -17 -102 -45 -148 -62 -45 -17 -95 -42 -110 -54 -31 -27 -162 -106 -174
-106 -4 0 -49 -24 -100 -53 -51 -30 -124 -70 -161 -91 -114 -62 -142 -78 -154
-88 -12 -9 -19 6 -26 53 -2 8 -6 19 -10 26 -4 6 -8 23 -9 37 -1 14 -5 26 -9
26 -4 0 -6 12 -7 26 0 15 -5 30 -12 34 -6 4 -12 11 -12 16 -1 31 -85 198 -127
254 -109 143 -182 220 -239 249 -32 17 -41 17 -67 6 -65 -28 -208 -220 -350
-470 -16 -29 -35 -59 -41 -66 -6 -8 -19 -32 -29 -54 -54 -119 -150 -314 -167
-337 -11 -16 -16 -28 -11 -28 4 0 3 -4 -3 -8 -12 -8 -60 -123 -56 -135 1 -4
-2 -17 -8 -28 -6 -11 -20 -54 -31 -97 -12 -42 -25 -93 -30 -112 -5 -19 -12
-45 -14 -57 -3 -12 -10 -35 -16 -50 -6 -16 -10 -29 -10 -30 1 -2 1 -4 0 -5 0
-2 -2 -16 -3 -33 -2 -16 -7 -46 -13 -65 -5 -19 -9 -48 -8 -65 1 -26 -16 -47
-120 -150 -113 -111 -205 -215 -205 -229 0 -6 -25 -38 -53 -68 -9 -10 -15 -18
-12 -18 3 0 -3 -10 -14 -22 -30 -32 -106 -147 -127 -193 -10 -22 -21 -42 -25
-45 -6 -5 -42 -70 -44 -80 0 -3 -8 -18 -16 -35 -9 -16 -28 -66 -42 -110 -48
-147 -63 -239 -45 -262 6 -7 7 -21 3 -30 -5 -10 -7 -21 -7 -25 1 -5 -3 -8 -9
-8 -5 0 -8 -4 -5 -8 3 -5 -1 -20 -9 -35 -15 -29 -51 -153 -60 -208 -10 -59
-15 -83 -20 -109 -12 -56 -20 -219 -16 -315 1 -11 1 -27 1 -35 -1 -22 16 -189
25 -245 3 -16 7 -41 9 -55 2 -14 13 -64 25 -112 11 -48 23 -99 25 -113 3 -13
7 -29 11 -35 4 -6 8 -23 11 -38 2 -15 8 -38 13 -52 5 -14 14 -45 21 -70 19
-68 79 -226 118 -310 20 -41 37 -80 38 -87 4 -22 145 -294 165 -319 5 -6 6
-14 2 -17 -3 -4 -1 -7 5 -7 7 0 12 -5 12 -11 0 -14 91 -161 198 -319 98 -145
154 -219 215 -282 9 -10 17 -22 17 -28 0 -5 3 -10 8 -10 4 0 35 -27 70 -60
l63 -59 -30 -15 c-45 -24 -180 -160 -216 -219 -10 -16 -20 -31 -130 -187 -71
-101 -68 -96 -144 -247 -64 -129 -116 -243 -131 -288 -31 -95 -37 -124 -26
-129 8 -3 7 -5 -1 -5 -7 -1 -10 -7 -8 -14 4 -9 -63 -12 -316 -12 l-321 0 -19
-24 c-25 -30 -24 -63 2 -87 21 -18 63 -19 1583 -21 858 -1 1917 -2 2351 -2
435 0 837 -1 895 -1 58 -1 1329 -2 2825 -4 l2720 -2 22 23 c21 22 22 38 8 83
-3 10 -13 20 -23 22 -9 2 -108 4 -219 4 -112 -1 -203 3 -203 7 0 5 -6 5 -12 0
-17 -10 -1898 -10 -1898 0 0 5 -5 5 -11 2 -16 -11 -69 -12 -69 -2 0 4 -6 5
-12 1 -14 -9 -182 -9 -196 0 -5 3 -12 3 -16 -1 -5 -5 -166 -11 -166 -6 0 1 17
12 37 24 21 13 45 30 54 39 9 8 28 24 41 35 14 11 47 38 74 60 27 22 59 50 72
63 13 12 26 22 29 22 17 0 290 292 317 339 5 9 15 21 21 26 18 16 105 150 105
162 0 6 4 13 9 15 16 6 93 180 143 323 12 35 17 39 51 41 20 2 63 18 97 38 34
20 65 36 70 36 4 0 10 3 12 8 2 4 19 18 39 32 201 139 367 304 553 547 47 62
86 117 86 122 0 5 4 11 8 13 12 4 72 95 72 107 0 6 5 11 12 11 6 0 9 3 5 6 -3
4 5 23 18 43 14 19 25 40 25 44 0 5 16 43 35 84 19 41 35 79 35 84 0 5 5 9 12
9 6 0 8 3 5 7 -4 3 -1 16 7 28 8 12 19 37 24 56 32 108 51 177 56 204 2 17 5
32 6 35 1 3 3 10 5 15 1 6 3 12 4 15 11 23 24 119 23 169 0 46 -4 58 -30 83
-20 21 -42 31 -73 35 -76 9 -343 9 -361 1 -12 -6 -18 -5 -18 2 0 6 -5 8 -11 4
-7 -4 -35 -8 -63 -9 -63 -3 -140 -14 -186 -26 -35 -8 -76 -15 -155 -24 -22 -3
-56 -8 -75 -11 -38 -6 -70 -7 -75 -2 -2 2 -8 41 -15 88 -6 47 -14 99 -17 115
-2 17 -6 57 -8 90 -2 33 -5 60 -6 60 -1 0 -3 9 -4 20 -2 11 -6 35 -9 53 -3 17
-8 46 -11 62 -4 25 -17 80 -34 155 -1 3 -3 10 -5 17 -8 25 -46 173 -49 193 -2
11 -7 27 -10 35 -4 8 -11 35 -17 60 -16 67 -17 73 -28 100 -5 14 -10 28 -11
32 -2 12 -8 29 -31 93 -12 33 -22 65 -23 70 -2 6 -5 15 -8 20 -3 6 -14 40 -25
78 -10 37 -22 67 -27 67 -4 0 -6 4 -3 9 3 5 -4 33 -15 62 -41 106 -78 195
-100 244 -13 28 -22 53 -21 58 1 4 -2 7 -8 7 -5 0 -10 4 -10 9 0 5 -21 53 -47
107 -26 55 -47 101 -48 104 -2 15 -120 233 -150 278 -19 30 -35 57 -35 62 0 5
-3 10 -7 12 -5 2 -27 28 -50 59 -23 31 -49 63 -58 72 -9 10 -14 17 -10 17 4 0
0 6 -7 14 -7 7 -26 31 -43 52 -16 21 -37 46 -45 54 -8 9 -40 45 -70 81 -54 63
-350 360 -388 389 -11 8 -42 35 -69 60 -84 76 -113 100 -118 100 -5 0 -14 7
-80 65 -16 14 -64 52 -105 83 -41 31 -86 67 -100 80 -14 13 -68 50 -120 83
-109 69 -135 87 -129 92 30 25 210 156 229 166 102 58 440 181 537 196 21 3
48 7 60 9 12 3 50 8 85 11 35 4 77 9 93 12 68 10 204 9 257 -3 32 -6 60 -9 63
-5 4 3 12 -1 18 -10 12 -16 130 -147 197 -219 102 -109 117 -134 85 -146 -8
-4 -15 -12 -15 -19 0 -7 -3 -15 -7 -17 -5 -1 -21 -21 -38 -43 -16 -22 -33 -44
-37 -50 -10 -11 -89 -116 -121 -159 -12 -16 -30 -37 -39 -47 -10 -11 -16 -19
-13 -19 3 0 -4 -10 -16 -22 -26 -28 -74 -97 -82 -119 -3 -9 3 -30 13 -46 15
-25 24 -30 52 -29 18 1 44 8 58 16 14 8 27 15 30 15 3 0 28 11 55 24 28 12 68
30 90 39 22 8 43 20 46 25 3 5 10 9 15 9 13 1 49 15 118 47 34 15 94 43 135
61 l73 34 46 -49 c110 -121 210 -233 247 -274 110 -123 124 -135 161 -135 33
0 54 16 60 47 1 4 2 10 4 15 1 4 1 32 0 62 -2 30 -3 89 -4 130 -1 41 -5 80 -9
87 -4 6 -4 14 0 16 5 3 7 27 6 54 -10 170 -8 259 6 276 8 9 19 17 24 17 9 0
110 45 295 131 45 22 85 39 88 39 14 0 135 64 145 76 15 18 15 60 -1 79 -14
17 -64 32 -130 39 -25 2 -45 5 -45 6 0 1 -16 3 -35 5 -33 3 -166 22 -220 31
-14 2 -51 7 -82 11 -32 3 -59 9 -59 12 -1 3 -3 50 -4 104 -2 54 -6 101 -9 104
-3 3 -1 14 5 24 5 11 6 19 2 19 -4 0 -8 51 -9 114 0 90 -4 119 -17 140 -17 25
-51 33 -85 19z m-782 -543 c0 -5 -2 -10 -4 -10 -3 0 -8 5 -11 10 -3 6 -1 10 4
10 6 0 11 -4 11 -10z m20 -674 c0 -8 -7 -16 -15 -20 -12 -4 -13 -2 -2 14 14
24 17 25 17 6z"/>
</g>
</svg>
